{
  "accessors": [
    {
      "bufferView": 2,
      "componentType": 5126,
      "count": 927,
      "max": [
        3.11614990234375,
        5.2388601303100586,
        3.2397201061248779
      ],
      "min": [
        -3.11614990234375,
        -5.0254502296447754,
        0.041189998388290405
      ],
      "type": "VEC3"
    },
    {
      "bufferView": 2,
      "byteOffset": 11124,
      "componentType": 5126,
      "count": 927,
      "max": [
        1,
        0.99397081136703491,
        1
      ],
      "min": [
        -1,
        -0.99999397993087769,
        -1
      ],
      "type": "VEC3"
    },
    {
      "bufferView": 3,
      "componentType": 5126,
      "count": 927,
      "max": [
        1,
        1,
        0.97673940658569336,
        1
      ],
      "min": [
        -1,
        -0.99999737739562988,
        -0.94751173257827759,
        -1
      ],
      "type": "VEC4"
    },
    {
      "bufferView": 1,
      "componentType": 5126,
      "count": 927,
      "max": [
        0.97851002216339111,
        0.97259998321533203
      ],
      "min": [
        0.015530000440776348,
        0.04554000124335289
      ],
      "type": "VEC2"
    },
    {
      "bufferView": 0,
      "componentType": 5125,
      "count": 4194,
      "max": [
        926
      ],
      "min": [
        0
      ],
      "type": "SCALAR"
    },
    {
      "bufferView": 2,
      "byteOffset": 22248,
      "componentType": 5126,
      "count": 1016,
      "max": [
        1.2657400369644165,
        5.1167101860046387,
        1.4257400035858154
      ],
      "min": [
        -1.2657400369644165,
        1.6493200063705444,
        0.030519999563694
      ],
      "type": "VEC3"
    },
    {
      "bufferView": 2,
      "byteOffset": 34440,
      "componentType": 5126,
      "count": 1016,
      "max": [
        1,
        0.95083355903625488,
        1
      ],
      "min": [
        -1,
        -0.72479468584060669,
        -1
      ],
      "type": "VEC3"
    },
    {
      "bufferView": 3,
      "byteOffset": 14832,
      "componentType": 5126,
      "count": 1016,
      "max": [
        1,
        0.82442057132720947,
        1,
        1
      ],
      "min": [
        -1,
        -0.94523191452026367,
        -1,
        1
      ],
      "type": "VEC4"
    },
    {
      "bufferView": 1,
      "byteOffset": 7416,
      "componentType": 5126,
      "count": 1016,
      "max": [
        0.92805999517440796,
        0.99967002868652344
      ],
      "min": [
        0.00033000000985339284,
        0.00033000000985339284
      ],
      "type": "VEC2"
    },
    {
      "bufferView": 0,
      "byteOffset": 16776,
      "componentType": 5125,
      "count": 3870,
      "max": [
        1015
      ],
      "min": [
        0
      ],
      "type": "SCALAR"
    },
    {
      "bufferView": 2,
      "byteOffset": 46632,
      "componentType": 5126,
      "count": 1658,
      "max": [
        1.1289000511169434,
        2.8264100551605225,
        0.66360002756118774
      ],
      "min": [
        -1.1289000511169434,
        -3.7316501140594482,
        -0.28290000557899475
      ],
      "type": "VEC3"
    },
    {
      "bufferView": 2,
      "byteOffset": 66528,
      "componentType": 5126,
      "count": 1658,
      "max": [
        1,
        0.99998438358306885,
        1
      ],
      "min": [
        -0.99998122453689575,
        -0.9999842643737793,
        -1
      ],
      "type": "VEC3"
    },
    {
      "bufferView": 3,
      "byteOffset": 31088,
      "componentType": 5126,
      "count": 1658,
      "max": [
        1,
        1,
        0.99999797344207764,
        1
      ],
      "min": [
        -0.99983608722686768,
        -1,
        -1,
        1
      ],
      "type": "VEC4"
    },
    {
      "bufferView": 1,
      "byteOffset": 15544,
      "componentType": 5126,
      "count": 1658,
      "max": [
        0.90908998250961304,
        0.99967998266220093
      ],
      "min": [
        0.00031999999191612005,
        0.00031999999191612005
      ],
      "type": "VEC2"
    },
    {
      "bufferView": 0,
      "byteOffset": 32256,
      "componentType": 5125,
      "count": 3054,
      "max": [
        1657
      ],
      "min": [
        0
      ],
      "type": "SCALAR"
    }
  ],
  "asset": {
    "extras": {
      "author": "mhart (https://sketchfab.com/mhart)",
      "license": "CC-BY-4.0 (http://creativecommons.org/licenses/by/4.0/)",
      "source": "https://sketchfab.com/models/786d73636cb34d58b384039505ff072d",
      "title": "Spaceshuttle Explorer 1°"
    },
    "generator": "Sketchfab-3.19.3",
    "version": "2.0"
  },
  "bufferViews": [
    {
      "buffer": 0,
      "byteLength": 44472,
      "byteOffset": 0,
      "name": "floatBufferViews",
      "target": 34963
    },
    {
      "buffer": 0,
      "byteLength": 28808,
      "byteOffset": 44472,
      "byteStride": 8,
      "name": "floatBufferViews",
      "target": 34962
    },
    {
      "buffer": 0,
      "byteLength": 86424,
      "byteOffset": 73280,
      "byteStride": 12,
      "name": "floatBufferViews",
      "target": 34962
    },
    {
      "buffer": 0,
      "byteLength": 57616,
      "byteOffset": 159704,
      "byteStride": 16,
      "name": "floatBufferViews",
      "target": 34962
    }
  ],
  "buffers": [
    {
      "byteLength": 217320,
      "uri": "scene.bin"
    }
  ],
  "images": [
    {
      "uri": "textures/antrieb_emissive.png"
    },
    {
      "uri": "textures/antrieb_metallicRoughness.png"
    },
    {
      "uri": "textures/antrieb_normal.png"
    },
    {
      "uri": "textures/antrieb_baseColor.png"
    },
    {
      "uri": "textures/shuttle_metallicRoughness.png"
    },
    {
      "uri": "textures/shuttle_normal.png"
    },
    {
      "uri": "textures/shuttle_baseColor.png"
    },
    {
      "uri": "textures/guns_metallicRoughness.png"
    },
    {
      "uri": "textures/guns_normal.png"
    },
    {
      "uri": "textures/guns_baseColor.png"
    }
  ],
  "materials": [
    {
      "doubleSided": true,
      "emissiveFactor": [
        0,
        0,
        0
      ],
      "name": "guns",
      "normalTexture": {
        "index": 8,
        "scale": 1,
        "texCoord": 0
      },
      "occlusionTexture": {
        "index": 7,
        "strength": 1,
        "texCoord": 0
      },
      "pbrMetallicRoughness": {
        "baseColorFactor": [
          1,
          1,
          1,
          1
        ],
        "baseColorTexture": {
          "index": 9,
          "texCoord": 0
        },
        "metallicFactor": 1,
        "metallicRoughnessTexture": {
          "index": 7,
          "texCoord": 0
        },
        "roughnessFactor": 1
      }
    },
    {
      "doubleSided": true,
      "emissiveFactor": [
        1,
        1,
        1
      ],
      "emissiveTexture": {
        "index": 0,
        "texCoord": 0
      },
      "name": "antrieb",
      "normalTexture": {
        "index": 2,
        "scale": 1,
        "texCoord": 0
      },
      "occlusionTexture": {
        "index": 1,
        "strength": 1,
        "texCoord": 0
      },
      "pbrMetallicRoughness": {
        "baseColorFactor": [
          0.70903201220000001,
          0.70903201220000001,
          0.70903201220000001,
          1
        ],
        "baseColorTexture": {
          "index": 3,
          "texCoord": 0
        },
        "metallicFactor": 1,
        "metallicRoughnessTexture": {
          "index": 1,
          "texCoord": 0
        },
        "roughnessFactor": 1
      }
    },
    {
      "doubleSided": true,
      "emissiveFactor": [
        0,
        0,
        0
      ],
      "name": "shuttle",
      "normalTexture": {
        "index": 5,
        "scale": 1,
        "texCoord": 0
      },
      "occlusionTexture": {
        "index": 4,
        "strength": 1,
        "texCoord": 0
      },
      "pbrMetallicRoughness": {
        "baseColorFactor": [
          1,
          1,
          1,
          1
        ],
        "baseColorTexture": {
          "index": 6,
          "texCoord": 0
        },
        "metallicFactor": 1,
        "metallicRoughnessTexture": {
          "index": 4,
          "texCoord": 0
        },
        "roughnessFactor": 1
      }
    }
  ],
  "meshes": [
    {
      "name": "shuttle_0",
      "primitives": [
        {
          "attributes": {
            "NORMAL": 1,
            "POSITION": 0,
            "TANGENT": 2,
            "TEXCOORD_0": 3
          },
          "indices": 4,
          "material": 2,
          "mode": 4
        }
      ]
    },
    {
      "name": "antrieb_0",
      "primitives": [
        {
          "attributes": {
            "NORMAL": 6,
            "POSITION": 5,
            "TANGENT": 7,
            "TEXCOORD_0": 8
          },
          "indices": 9,
          "material": 1,
          "mode": 4
        }
      ]
    },
    {
      "name": "guns_0",
      "primitives": [
        {
          "attributes": {
            "NORMAL": 11,
            "POSITION": 10,
            "TANGENT": 12,
            "TEXCOORD_0": 13
          },
          "indices": 14,
          "material": 0,
          "mode": 4
        }
      ]
    }
  ],
  "nodes": [
    {
      "children": [
        1
      ],
      "name": "RootNode (gltf orientation matrix)",
      "rotation": [
        -0.70710678118654746,
        -0,
        -0,
        0.70710678118654757
      ]
    },
    {
      "children": [
        2
      ],
      "name": "RootNode (model correction matrix)"
    },
    {
      "children": [
        3,
        5,
        7
      ],
      "name": "Root"
    },
    {
      "children": [
        4
      ],
      "name": "shuttle"
    },
    {
      "mesh": 0,
      "name": "shuttle_0"
    },
    {
      "children": [
        6
      ],
      "name": "antrieb"
    },
    {
      "mesh": 1,
      "name": "antrieb_0"
    },
    {
      "children": [
        8
      ],
      "name": "guns"
    },
    {
      "mesh": 2,
      "name": "guns_0"
    }
  ],
  "samplers": [
    {
      "magFilter": 9729,
      "minFilter": 9987,
      "wrapS": 10497,
      "wrapT": 10497
    }
  ],
  "scene": 0,
  "scenes": [
    {
      "name": "OSG_Scene",
      "nodes": [
        0
      ]
    }
  ],
  "textures": [
    {
      "sampler": 0,
      "source": 0
    },
    {
      "sampler": 0,
      "source": 1
    },
    {
      "sampler": 0,
      "source": 2
    },
    {
      "sampler": 0,
      "source": 3
    },
    {
      "sampler": 0,
      "source": 4
    },
    {
      "sampler": 0,
      "source": 5
    },
    {
      "sampler": 0,
      "source": 6
    },
    {
      "sampler": 0,
      "source": 7
    },
    {
      "sampler": 0,
      "source": 8
    },
    {
      "sampler": 0,
      "source": 9
    }
  ]
}

