<?xml version="1.0" encoding="iso-8859-1"?>
<!-- Generator: Adobe Illustrator 19.0.0, SVG Export Plug-In . SVG Version: 6.00 Build 0)  -->
<svg version="1.1" id="Capa_1" xmlns="http://www.w3.org/2000/svg" xmlns:xlink="http://www.w3.org/1999/xlink" x="0px" y="0px"
	 viewBox="0 0 512 512" style="enable-background:new 0 0 512 512;" xml:space="preserve">
<path style="fill:#AB91EA;" d="M0,256c0,141.397,114.603,256,256,256s256-114.603,256-256S397.397,0,256,0S0,114.613,0,256z"/>
<path style="fill:#947ADB;" d="M202.123,375.819l125.867,125.867c79.636-23.403,143.029-83.887,170.144-162.336l-208-208
	l-0.16,0.224l-27.317-27.296c-2.499-2.496-6.546-2.496-9.045,0l-32,32c-15.541,15.691-21.045,28.523-21.045,49.067V208
	l-20.267,15.381c-11.541,8.352-18.133,22.315-18.133,38.304v24.427c-0.119,5.069,2.359,9.849,6.571,12.672l-0.117,0.16
	l22.667,22.667l9.28,9.323V371.2c0.003,1.626,0.625,3.189,1.739,4.373v0.064L202.123,375.819z"/>
<g>
	<path style="fill:#F4F6F9;" d="M258.133,236.8c17.674,0,32-14.326,32-32s-14.326-32-32-32c-17.674,0-32,14.326-32,32
		S240.46,236.8,258.133,236.8L258.133,236.8z M258.133,185.6c10.604,0,19.2,8.596,19.2,19.2c0,10.604-8.596,19.2-19.2,19.2
		c-10.604,0-19.2-8.596-19.2-19.2l0,0C238.933,194.196,247.53,185.6,258.133,185.6z"/>
	<path style="fill:#F4F6F9;" d="M336.096,223.499L315.733,208v-22.4c0-20.704-5.504-33.611-21.077-49.323l-32-32
		c-2.499-2.496-6.546-2.496-9.045,0l-32,32c-15.541,15.691-21.045,28.523-21.045,49.067V208l-20.267,15.381
		c-11.541,8.352-18.133,22.315-18.133,38.304v24.427c-0.142,5.388,2.674,10.421,7.339,13.12c1.849,1.009,3.921,1.537,6.027,1.536
		c2.721-0.026,5.375-0.845,7.637-2.357l17.397-11.733V371.2c-0.001,1.722,0.69,3.371,1.92,4.576
		c6.862,6.527,16.014,10.097,25.483,9.941c1.534-0.034,3.066-0.151,4.587-0.352v5.035c0,15.189,16.747,19.2,25.6,19.2
		c8.853,0,25.6-4.011,25.6-19.2v-5.035c1.521,0.201,3.053,0.318,4.587,0.352c9.469,0.151,18.619-3.418,25.483-9.941
		c1.226-1.206,1.914-2.857,1.909-4.576v-84.533l17.504,11.84c2.214,1.472,4.807,2.272,7.467,2.304c2.114,0,4.193-0.532,6.048-1.547
		c4.665-2.699,7.481-7.732,7.339-13.12v-24.427C354.133,245.717,347.509,231.755,336.096,223.499z M213.333,320v-19.2h89.6V320
		H213.333z M213.333,185.323c0-17.237,4.053-26.592,17.323-39.989l27.477-27.488l27.445,27.445
		c13.141,13.28,17.355,23.061,17.355,40.309V288h-89.6V185.323L213.333,185.323z M175.573,288c-0.171-0.075-0.64-0.661-0.64-1.867
		v-24.427c0-11.84,4.683-22.016,12.971-28.021l12.629-9.6v47.104L175.573,288z M213.333,368.277V332.8h19.2v39.701
		C225.419,373.589,218.4,372.096,213.333,368.277z M258.133,396.8c-0.128,0-12.8-0.352-12.8-6.4v-57.6h25.6v57.6
		C270.933,396.448,258.24,396.8,258.133,396.8z M283.733,372.501V332.8h19.2v35.477C297.856,372.096,290.837,373.6,283.733,372.501z
		 M341.333,286.101c0,1.216-0.597,1.76-1.067,1.696l-24.533-16.629v-47.072l12.747,9.685c8.171,5.909,12.853,16.096,12.853,27.936
		V286.101z"/>
</g>
<g>
</g>
<g>
</g>
<g>
</g>
<g>
</g>
<g>
</g>
<g>
</g>
<g>
</g>
<g>
</g>
<g>
</g>
<g>
</g>
<g>
</g>
<g>
</g>
<g>
</g>
<g>
</g>
<g>
</g>
</svg>
