<svg xmlns="http://www.w3.org/2000/svg" width="25" height="25" viewBox="0 0 25 25"><g fill="#fff" transform="translate(3.996 -1031.366)"><circle cx="657.054" cy="437.094" r="15.268" fill="#9257a2" fill-rule="evenodd" transform="matrix(.81871 0 0 .81871 -529.435 686.011)"/><path fill="#6c4676" style="line-height:normal;text-indent:0;text-align:start;text-decoration-line:none;text-decoration-style:solid;text-decoration-color:#000;text-transform:none;block-progression:tb;isolation:auto;mix-blend-mode:normal" d="M 16.376953 24.375 A 12.5 12.5 0 0 0 17.367188 24.013672 A 12.5 12.5 0 0 0 18.492188 23.470703 A 12.5 12.5 0 0 0 19.558594 22.816406 A 12.5 12.5 0 0 0 20.552734 22.060547 A 12.5 12.5 0 0 0 21.466797 21.208984 A 12.5 12.5 0 0 0 22.291016 20.269531 A 12.5 12.5 0 0 0 23.017578 19.253906 A 12.5 12.5 0 0 0 23.640625 18.169922 A 12.5 12.5 0 0 0 24.150391 17.029297 A 12.5 12.5 0 0 0 24.185547 16.925781 L 14.855469 7.5976562 C 14.824448 7.5666373 14.794785 7.5457134 14.763672 7.515625 C 14.611167 7.3680188 14.464748 7.2443879 14.314453 7.1191406 C 14.206653 7.0292823 14.103384 6.9357836 14 6.8574219 C 13.854069 6.7465931 13.730298 6.6621974 13.599609 6.5742188 C 13.51624 6.5180723 13.443763 6.4628759 13.369141 6.4160156 C 12.982586 6.1719701 12.716797 6.0449219 12.716797 6.0449219 L 12.498047 5.9394531 L 12.279297 6.046875 C 12.279297 6.046875 8.3710938 7.9024686 8.3710938 11.542969 C 8.3710938 11.755167 8.3862565 11.960792 8.4101562 12.160156 C 8.4160181 12.208996 8.4264073 12.254663 8.4335938 12.302734 C 8.4549435 12.44563 8.4774711 12.586525 8.5097656 12.722656 C 8.5302652 12.809132 8.5574897 12.890854 8.5820312 12.974609 C 8.6093967 13.067963 8.6359638 13.16197 8.6679688 13.251953 C 8.6977133 13.335613 8.7322059 13.415339 8.765625 13.496094 C 8.7978465 13.573946 8.8298933 13.651404 8.8652344 13.726562 C 8.9941889 14.00091 9.1411953 14.255466 9.3027344 14.494141 C 9.3263505 14.529045 9.3489066 14.56351 9.3730469 14.597656 C 9.4741433 14.74067 9.5831203 14.864385 9.6914062 14.994141 C 9.805582 15.13101 9.9166768 15.266458 10.035156 15.388672 C 10.062511 15.41691 10.087774 15.453009 10.115234 15.480469 L 12 17.365234 L 12 19.998047 L 16.376953 24.375 z " color="#000" font-family="sans-serif" font-weight="400" transform="translate(-3.996 1031.366)" white-space="normal"/><path d="m 7.4980469,0.94921875 -0.21875,0.10742185 c 0,0 -3.9082031,1.8555938 -3.9082031,5.4960938 0,3.2228362 2.9261134,4.9614276 3.6289062,5.3378906 l 0,3.115234 1,0 0,-3.113281 c 0.7087848,-0.375763 3.626953,-2.0975894 3.626953,-5.3398436 0,-3.6675 -3.9101561,-5.4980469 -3.9101561,-5.4980469 l -0.21875,-0.10546875 z m 0.00391,1.16210935 c 0.381795,0.2015 3.1250001,1.6983063 3.1250001,4.4414063 0,2.2164317 -1.7374296,3.5754816 -2.6269532,4.1386716 l 0,-4.6855466 -1,0 0,4.6796876 c -0.8910586,-0.57234 -2.62891,-1.9439454 -2.62891,-4.1328126 0,-2.7134 2.7519956,-4.2379063 3.1308593,-4.4414063 z" color="#000" font-family="sans-serif" font-weight="400" overflow="visible" transform="translate(1.005 1036.357)" white-space="normal" style="line-height:normal;text-indent:0;text-align:start;text-decoration-line:none;text-decoration-style:solid;text-decoration-color:#000;text-transform:none;block-progression:tb;isolation:auto;mix-blend-mode:normal"/></g></svg>