<?xml version="1.0" encoding="utf-8"?>
<!-- Generator: Adobe Illustrator 24.0.1, SVG Export Plug-In . SVG Version: 6.00 Build 0)  -->
<svg version="1.1" id="Layer_2_1_" xmlns="http://www.w3.org/2000/svg" xmlns:xlink="http://www.w3.org/1999/xlink" x="0px" y="0px"
	 viewBox="0 0 430.3 431.9" style="enable-background:new 0 0 430.3 431.9;" xml:space="preserve">
<style type="text/css">
	.st0{fill:#2D2273;}
	.st1{fill:#F0F0F7;}
</style>
<circle class="st0" cx="215.9" cy="217" r="211.8"/>
<g>
	<path class="st1" d="M215.2,107c-26.6,0-48.2,20.6-48.2,46c0,3.5,0.4,6.9,1.2,10.1c0.4,1.9,1,3.7,1.7,5.4v0.1l9.8,15.5
		c8.8,9.2,21.5,14.9,35.5,14.9s26.7-5.8,35.5-14.9l9.8-15.5c0.7-1.8,1.2-3.6,1.7-5.5l0,0c0.8-3.3,1.2-6.6,1.2-10.1
		C263.4,127.6,241.8,107,215.2,107z M214.7,169.7c-6,0-10.9-5.1-11.6-11.7c0-0.5-0.1-1-0.1-1.6c0-7.3,5.2-13.2,11.7-13.2
		s11.7,5.9,11.7,13.2c0,0.5,0,1.1-0.1,1.6C225.6,164.6,220.7,169.7,214.7,169.7z"/>
	<path class="st1" d="M262.2,163.2L262.2,163.2l-1.7,5.5l-9.8,15.5l-30.4,47.9c-2.4,3.8-7.9,3.8-10.3,0l-30.4-47.9l-9.8-15.5v-0.1
		l-1.7-5.4c0.5-2.8,2.8-5.1,6-5.1h29c0.7,6.6,5.6,11.7,11.6,11.7s10.9-5.1,11.6-11.7h29.9C259.4,158,261.8,160.4,262.2,163.2z"/>
	<path class="st1" d="M174,209.2c0.4,0.8,1,1.8,1.7,3c1,1.7,2.9,4.8,5.6,8.3c3,3.9,3.3,3.5,9.2,10.1c3.4,3.9,3.6,4.3,5.8,6.6
		c3.2,3.2,5.7,5.2,7.1,6.4c2.1,1.6,2.8,2.3,3.9,2.8c2.2,1,4.1,1.2,6,1.3c2.1,0.2,4.8,0.4,7.3-0.4c3.3-1,4.8-3,8.4-6.9
		c6.3-6.7,6.1-5,11.3-10.7c3.3-3.7,5.5-6.8,9-11.8c2.4-3.4,4.3-6.4,5.6-8.4c1.3,0,2.5,0,3.8,0c3.4,0,6.9,0,10.3,0
		c12.1,0,18.1,0,20.8-0.2c1.9-0.1,3.9,0.1,5.8,0c1.3-0.1,2.4-0.2,3.6,0.4s1.9,1.6,2.3,2.3c2.3,4.1,3.6,8.2,3.8,8.6
		c0.4,1.6,0.5,2.1,1.5,7.1c0.5,2.7,1,4.9,1.3,6.4c-0.5,0.7-1.3,1.8-2.4,3c-4.4,4.9-9,7.4-10.1,8.1c-3.8,2.2-10.7,7.5-24.2,21
		c-1.4-0.3-3.7-0.8-6.6-1.3c-6.4-1.2-11.2-2-12.4-2.3c-9.8-1.7-25.6-4.8-41.1-7.7c-19.6-3.7-24.3-4-40.9-7.3
		c-5.7-1.1-10.3-2.2-13.3-2.8c-4.3-0.6-8.5-1.3-12.8-1.9c-4.1-0.6-4.8-0.9-16.5-3.4c-1.9-0.4-3.7-1.2-5.6-1.3c-0.8,0-1.6,0-2.1-0.6
		c-0.7-0.9,0.3-2.9,0.8-3.8c2.3-4.6,3.4-9.8,4.3-14.6c0.5-2.5,0.7-4.6,2.3-7.1c0.5-0.8,0.9-2.2,2.3-2.8c0.8-0.4,1.5-0.4,2.6-0.4
		c3.6,0-0.9-0.3,5.1-0.2c3.1,0,5.4,0.1,7.3,0.2c4,0.1,3.7,0.1,6.6,0.2c2,0.1,4.7,0.2,8.1,0.4c2.7-0.1,5.4-0.1,8.1-0.2
		c0.9-0.1,1.9-0.2,3-0.2C171.8,209,173,209.1,174,209.2z"/>
	<path class="st1" d="M117,248.6c-0.4,0.3-0.1,0.3-1.4,5.1c-0.4,1.6-0.9,3.1-1.8,6.1c-0.3,1.2-0.6,2.1-0.8,2.6
		c-1,3.5-2.7,9-5.3,18.3c-1.3,4.6-2.3,9-2.3,9c-1.4,6-1.1,5.6-1.5,6.6c-0.4,0.9-1,2-0.8,3.5c0.1,1.6,0.9,2.7,1.1,3
		c0.8,1.1,1.9,1.6,2.8,2c1.2,0.5,2.2,0.7,3.4,0.8c1.1,0.1,2.6,0.3,4.4,0.1c2.3,0,4.7,0,7,0c3.5,0,6.3,0,8.3,0c1.9,0,3.8-0.2,5.6,0
		c1.9,0.2,3.3,0.5,3.8-0.1c0.4-0.5,0-1-0.3-2.5c-0.2-1.2-0.1-1.6,0-4.1c0-1.2,0-2.4,0-4.8c0-3.3-0.2-4.3-0.3-6.9
		c-0.1-3.3,0-4.8,0.1-8.3c0.1-4.7-0.1-4.5-0.1-12c0,0,0,0,0-6.8c0-4.6,0-4.6,0-4.6c0.2-1.1,0.5-1.9,0-2.5c-0.5-0.7-1.6-0.7-2.5-0.7
		c-1.9-0.1-3.7-0.8-5.6-1C123.7,250.6,119.3,246.7,117,248.6z"/>
	<path class="st1" d="M312,245.8c0.3,0.8,0.8,1.9,1.3,3.4c0.8,2.3,1.3,4.2,1.9,6.8c1.4,6.1,1.2,5.4,1.7,7.3c1.1,4.2,1.6,4.6,2.8,9
		c0.9,3.3,0.6,2.7,1.9,7.9c1.5,5.8,2.2,8.7,3.2,11.3c0.1,0.3,0.6,1.9,1.7,5.1c0.7,2.1,1,3.1,0.8,4.1c-0.4,2.1-2.3,3.3-2.7,3.6
		c-1.3,0.8-2.5,1-3.8,1.1c-4.3,0.4-7.9,0.2-8.6,0.2c-2.7-0.2-5.5-0.1-8.3-0.2c-5.1-0.2-6.5,0-17.5,0c-3.4,0-8.3,0-14.3,0
		c-3.2,0-6.5,0-9.8,0c-4.2,0-8.4,0.1-12.6,0.2c-5.8,0.1-8.6,0.6-8.8-0.2c-0.1-0.3,0.1-0.8,3.8-3.4c2.8-2,4.9-3.3,5.6-3.8
		c2-1.3,4.7-3.4,7.5-6.9c2.4-1.9,4.8-3.8,7.1-5.6c2.8-2.7,5.8-5.5,9-8.3c2.7-2.4,5.4-4.6,8.1-6.8c3.5-2.6,7.1-5.5,10.9-8.8
		c2.9-2.5,5.5-5.1,7.9-7.5C304.6,251.4,308.3,248.6,312,245.8z"/>
	<polygon class="st1" points="150.8,254.5 150.8,306.1 224.5,305.8 259.2,275.8 	"/>
</g>
</svg>
