<?xml version="1.0" encoding="utf-8"?>
<!-- Generator: Adobe Illustrator 24.0.1, SVG Export Plug-In . SVG Version: 6.00 Build 0)  -->
<svg version="1.1" xmlns="http://www.w3.org/2000/svg" xmlns:xlink="http://www.w3.org/1999/xlink" x="0px" y="0px"
	 viewBox="0 0 512 512" style="enable-background:new 0 0 512 512;" xml:space="preserve">
<style type="text/css">
	.st0{fill:#2D2273;}
	.st1{fill:#FFFFFF;}
</style>
<g id="Layer_1">
	<circle class="st0" cx="256.5" cy="255.9" r="211.8"/>
</g>
<g id="Layer_2">
	<g>
		<path class="st1" d="M213.8,148.9c3.8,0,7-3.1,7-6.9s-3.1-6.9-7-6.9h-0.1c-3.8,0-6.9,3.1-6.9,6.9
			C206.8,145.9,209.9,148.9,213.8,148.9z"/>
		<path class="st1" d="M340.6,279.5c0,4.8-0.1,7-2.9,9.7c-6.6,6.5-17.3,3.3-17.5,3.2c-3.7-1.2-7.6,0.8-8.8,4.4
			c-1.2,3.6,0.8,7.5,4.4,8.7c0.4,0.1,4.9,1.6,10.8,1.6c6.3,0,14.3-1.6,20.9-8.1c7-6.9,7-14.1,7-19.4c0-4.8,0.1-7,2.9-9.7
			c6.6-6.5,17.4-3.2,17.5-3.2c3.7,1.2,7.6-0.7,8.8-4.4c1.2-3.6-0.8-7.5-4.4-8.7c-0.8-0.3-19-6.1-31.7,6.5
			C340.6,266.9,340.6,274.2,340.6,279.5z"/>
		<path class="st1" d="M213.8,382.7c3.8,0,7-3.1,7-6.9c0-3.8-3.1-6.9-7-6.9h-0.1c-3.8,0-6.9,3.1-6.9,6.9
			C206.8,379.6,209.9,382.7,213.8,382.7z"/>
		<path class="st1" d="M262.3,258.9c0,3.8,3.1,6.9,7,6.9c3.8,0,7-3.1,7-6.9v-7.7c5.4-1.3,10.4-4.2,14.6-8.1l8.7,7.3
			c1.3,1.1,2.9,1.6,4.5,1.6c2,0,3.9-0.8,5.3-2.4c2.5-2.9,2.1-7.2-0.8-9.7l-9.5-7.9c2.2-4.3,3.7-9.2,4.5-14.3h7.5c3.8,0,7-3.1,7-6.9
			c0-3.8-3.1-6.9-7-6.9h-7.5c-0.7-5.2-2.3-10-4.5-14.3l9.5-7.9c2.9-2.5,3.3-6.8,0.8-9.7c-2.5-2.9-6.9-3.3-9.8-0.8l-8.7,7.3
			c-4.2-3.9-9.2-6.8-14.6-8.1v-7.7c0-3.8-3.1-6.9-7-6.9c-3.8,0-7,3.1-7,6.9v7.7c-5.4,1.3-10.4,4.2-14.6,8.1l-8.7-7.3
			c-3-2.5-7.3-2.1-9.8,0.8c-2.5,2.9-2.1,7.2,0.8,9.7l9.5,7.9c-2.2,4.3-3.7,9.2-4.5,14.3h-7.5c-3.8,0-7,3.1-7,6.9
			c0,3.8,3.1,6.9,7,6.9h7.5c0.7,5.2,2.3,10,4.5,14.3l-9.5,7.9c-2.9,2.5-3.3,6.8-0.8,9.7c1.4,1.6,3.3,2.4,5.3,2.4
			c1.6,0,3.2-0.5,4.5-1.6l8.7-7.3c4.2,3.9,9.2,6.8,14.6,8.1L262.3,258.9L262.3,258.9z M248.4,210.8c0-15.2,9.4-27.5,20.9-27.5
			c11.5,0,20.9,12.3,20.9,27.5c0,15.2-9.4,27.5-20.9,27.5C257.8,238.3,248.4,226,248.4,210.8z"/>
		<path class="st1" d="M241.6,286.4L241.6,286.4c-3.9,0-7,3.1-7,6.9c0,3.8,3.1,6.9,7,6.9c3.8,0,7-3.1,7-6.9
			C248.6,289.5,245.5,286.4,241.6,286.4z"/>
		<path class="st1" d="M290.1,341.4c0-7.6-6.3-13.7-13.9-13.7c-7.7,0-13.9,6.2-13.9,13.7c0,7.6,6.2,13.7,13.9,13.7
			C283.9,355.2,290.1,349,290.1,341.4z"/>
		<path class="st1" d="M150.9,217.7c0-7.6-6.3-13.7-13.9-13.7c-7.7,0-13.9,6.2-13.9,13.7c0,7.6,6.2,13.7,13.9,13.7
			C144.7,231.4,150.9,225.3,150.9,217.7z"/>
		<path class="st1" d="M186,190.2L186,190.2c-3.9,0-7,3.1-7,6.9s3.1,6.9,7,6.9c3.8,0,7-3.1,7-6.9S189.8,190.2,186,190.2z"/>
		<path class="st1" d="M182.3,334.2c0.7,0.2,1.5,0.4,2.2,0.4c2.9,0,5.6-1.8,6.6-4.7c0.3-0.8,6.1-18.8-6.6-31.3
			c-7-6.9-14.3-6.9-19.7-6.9c-4.8,0-7.1-0.1-9.8-2.8c-6.6-6.5-3.3-17.2-3.2-17.3c1.2-3.6-0.8-7.5-4.4-8.7c-3.7-1.2-7.6,0.7-8.8,4.3
			c-0.3,0.8-6.1,18.8,6.6,31.3c7,6.9,14.3,6.9,19.7,6.9c4.8,0,7.1,0.1,9.8,2.8c6.6,6.5,3.3,17,3.2,17.3
			C176.7,329.1,178.7,333,182.3,334.2z"/>
		<path class="st1" d="M373.9,183.3c0-3.8-3.1-6.9-7-6.9h-0.1c-3.8,0-6.9,3.1-6.9,6.9s3.1,6.9,7,6.9
			C370.8,190.2,373.9,187.1,373.9,183.3z"/>
	</g>
</g>
</svg>
