<svg xmlns="http://www.w3.org/2000/svg" xmlns:xlink="http://www.w3.org/1999/xlink" x="0" y="0" version="1.1" viewBox="0 0 512 512" xml:space="preserve" style="enable-background:new 0 0 512 512"><style type="text/css">.st0{fill:#2d2273}.st1{fill:#fff}</style><g id="Layer_1"><g id="Layer_4"><circle cx="259.4" cy="253.1" r="211.8" class="st0"/></g></g><g id="Layer_2"><path d="M363.8,368.4L165,120c0,0-7.9-5.1-15.1,0c-7.2,5,8.6,79.2,36.7,108c28.1,28.8,34.6,14.4,39.6,23 c5,8.6,113.8,133.2,113.8,133.2s10.8,8.6,19.4,4.3C368,384.3,369,374.9,363.8,368.4z" class="st1"/></g><g id="Layer_3_1_"><path d="M294.1,212.9c3-6.8-9.4-21.3-3.2-28c6.2-6.7,46.2-56.3,53.7-64.4s20.7,2.2,10.6,13.1s-34.7,39.7-40.6,46.2 c-5.9,6.5,1.7,15.3,6.8,9.7s37.1-41.7,43.6-48.7c6.4-7,14,4,8.9,9.6c-5.1,5.6-36.6,41.3-41.9,47.1s1.2,13.6,7.3,7 c6-6.6,30.5-33.9,39.7-43.9s17.3,5.2,12.7,10.2c-13,14.2-49.2,56.4-54.3,61.9c-6.3,6.9-20.5-7.8-25.4-0.4 c-2.1,3.2-131,143.8-135.4,148.6c-8.4,9.1-17.3,11.6-23.8,4.5c-6-6.5-7.4-13.7,3.9-26.1C198.1,314.2,285.9,225.4,294.1,212.9z" class="st1"/><path d="M286,179" class="st1"/></g></svg>