<svg xmlns="http://www.w3.org/2000/svg" xmlns:xlink="http://www.w3.org/1999/xlink" id="Layer_1" x="0" y="0" version="1.1" viewBox="0 0 432 433" xml:space="preserve" style="enable-background:new 0 0 432 433"><style type="text/css">.st0{fill:#2d2273}.st1{fill:none;stroke:#f7f7fc;stroke-width:18;stroke-miterlimit:10}</style><g id="Layer_4"><circle cx="214.2" cy="217" r="211.8" class="st0"/><path d="M156,107.2c6.4-0.5,12.8-1,19.2-1.5c2.7-0.1,5.5-0.1,8.4,0c5.1,0.2,9.8,0.6,14.1,1.2c2.4,0.2,4.8,0.5,7.3,0.7 c2.5,0.4,5.2,0.9,7.9,1.4c3.1,0.6,5.9,1.4,8.6,2.1c3.3,0.9,6.8,2,10.4,3.4c5.2,2,9.8,4.2,13.7,6.4c1.9,1.1,3.9,2.3,5.9,3.6 c3.5,2.3,6.5,4.7,9.1,7c2.8,3,5.6,5.9,8.5,8.9c2,2.5,4.1,5.5,6.2,8.8c2.1,3.6,3.8,7,5.1,10c0.8,2,1.7,4.4,2.6,7.1 c1,3.4,1.7,6.3,2.1,8.2c0.4,2.1,1.3,6.9,1.5,13.3c0,1.3,0.1,4.4-0.1,8.4c-0.1,1.5-0.4,6.3-1.6,12.5c-0.7,3.8-1.7,8.3-3.3,13.4 c-0.8,2.3-1.6,4.7-2.4,7c-1.4,3.3-2.7,6.6-4.1,9.9c-2,4.5-4,8.4-5.8,11.6c-3.3,6-6.3,10.6-7.8,12.9c-1.3,1.9-1.9,2.8-2.3,3.3 c-6.2,7.6-15.6,9.6-17.3,9.9c-1.7,0.3-4.3,0.7-7.5,0.4c-4.9,0-9.7-0.1-14.6-0.1c-4.6-0.3-9.2-0.6-13.8-0.9 c-4.5-0.8-8.2-1.7-11.1-2.4c-3.9-1-6.9-1.8-9.4-2.5c-3.4-1-5.2-1.5-7.3-2.3c-5.3-1.8-9.1-3.8-11.5-5c-7-3.6-11.8-7.2-13-8.1 c-2.8-2.1-6.5-5.2-10.3-9.3c-3.9-4.2-6.9-8.3-9.2-12c-2-3.3-4.2-7.3-6-12c-2.2-5.6-3.5-10.9-4.2-15.3c-0.3-2.8-0.7-5.5-1-8.3 c0.1-5.2,0.2-10.3,0.4-15.5c0.5-4.9,1.4-10.5,3-16.6c1.8-7.1,4-13.3,6.2-18.7c2.2-5.5,5-11.5,8.5-17.9 C145.9,121.3,151.1,113.6,156,107.2z" class="st1"/><line x1="159.1" x2="283.8" y1="111.5" y2="329.3" class="st1"/></g></svg>