<svg xmlns="http://www.w3.org/2000/svg" xmlns:xlink="http://www.w3.org/1999/xlink" id="Layer_1" x="0" y="0" version="1.1" viewBox="0 0 441 433" xml:space="preserve" style="enable-background:new 0 0 441 433"><style type="text/css">.st0{fill:#2d2273}.st1{fill:#fff}</style><g id="Layer_1_1_"><path d="M435.3,215.7c0,61.3-26,116.5-67.6,155.1c-19.5,18.1-42.4,32.6-67.7,42.4c-4.7,1.8-9.5,3.5-14.3,5 c-19.7,6-40.6,9.3-62.2,9.3c-29.1,0-56.9-5.9-82.2-16.5c-7.8-3.3-15.5-7.1-22.8-11.3c-29.3-16.8-54.3-40.3-72.6-68.6 c-6.5-10-12.2-20.5-16.9-31.5l0,0c-11.1-25.7-17.3-54.1-17.3-83.9c0-11.7,0.9-23.1,2.8-34.2c1.4-8.6,3.3-17,5.7-25.2 c7.5-25.6,19.6-49.1,35.5-69.7C94.4,36.4,155.2,4,223.5,4C340.5,3.9,435.3,98.7,435.3,215.7z" class="st0"/><path d="M283.5,229.3h-7.9v-56.6h8.2c1.5,0,2.7-1.2,2.7-2.7v-21.6c0-1.5-1.2-2.7-2.7-2.7h-41.1v-8.1 c0-1.5-1.2-2.7-2.7-2.7h-32.9c-1.5,0-2.7,1.2-2.7,2.7v8.1h-41.1c-1.5,0-2.7,1.2-2.7,2.7V170c0,1.5,1.2,2.7,2.7,2.7h8.2v56.6h-8.2 c-7.6,0-13.7,6-13.7,13.5v37.7c0,1.5,1.2,2.7,2.7,2.7h19.2V294c0,4.5,3.7,8.1,8.2,8.1h87.6c4.5,0,8.2-3.6,8.2-8.1v-10.8h18.8 c1.5,0,2.7-1.2,2.7-2.7v-37.7C297.2,235.3,291.1,229.3,283.5,229.3z M283.5,234.6c4.5,0,8.2,3.6,8.2,8.1h-16.1v-8.1H283.5z M281.1,151.1v16.2h-21.9v-16.2H281.1z M253.8,151.1v16.2h-5.5v-16.2H253.8z M210,140.3h27.4v5.4H210V140.3z M242.8,151.1v16.2 h-38.3v-16.2H242.8z M199,151.1v16.2h-5.5v-16.2H199z M166.2,151.1h21.9v16.2h-21.9V151.1z M163.4,234.6h8.2v8.1h-16.4 C155.2,238.3,158.9,234.7,163.4,234.6z M155.2,277.8v-29.6h16.4v29.6H155.2z M270.2,293.9c0,1.5-1.2,2.7-2.7,2.7h-87.6 c-1.5,0-2.7-1.2-2.7-2.7V172.7h93.1L270.2,293.9L270.2,293.9z M291.8,277.8h-16.1v-29.6h16.1V277.8z" class="st1"/><path d="M253.8,202.3h-60.2c-1.5,0-2.7,1.2-2.7,2.7v59.3c0,1.5,1.2,2.7,2.7,2.7h60.2c1.5,0,2.7-1.2,2.7-2.7V205 C256.5,203.5,255.3,202.3,253.8,202.3z M251,207.7v8.1h-54.8v-8.1H251z M196.3,261.6v-40.4H251v40.4H196.3z" class="st1"/></g></svg>