<?xml version="1.0" encoding="utf-8"?>
<!-- Generator: Adobe Illustrator 24.0.1, SVG Export Plug-In . SVG Version: 6.00 Build 0)  -->
<svg version="1.1" xmlns="http://www.w3.org/2000/svg" xmlns:xlink="http://www.w3.org/1999/xlink" x="0px" y="0px"
	 viewBox="0 0 512 512" style="enable-background:new 0 0 512 512;" xml:space="preserve">
<style type="text/css">
	.st0{fill:#2D2273;}
	.st1{fill:#FFFFFF;}
</style>
<g id="Layer_1">
	<path class="st0" d="M435.3,266.7c0,61.3-26,116.5-67.6,155.1c-19.5,18.1-42.4,32.6-67.7,42.4c-4.7,1.8-9.5,3.5-14.3,5
		c-19.7,6-40.6,9.3-62.2,9.3c-29.1,0-56.9-5.9-82.2-16.5c-7.8-3.3-15.5-7.1-22.8-11.3c-29.3-16.8-54.3-40.3-72.6-68.6
		c-6.5-10-12.2-20.5-16.9-31.5l0,0c-11.1-25.7-17.3-54.1-17.3-83.9c0-11.7,0.9-23.1,2.8-34.2c1.4-8.6,3.3-17,5.7-25.2
		c7.5-25.6,19.6-49.1,35.5-69.7C94.4,87.4,155.2,55,223.5,55C340.5,54.9,435.3,149.7,435.3,266.7z"/>
	<path class="st1" d="M283.5,280.3h-7.9v-56.6h8.2c1.5,0,2.7-1.2,2.7-2.7v-21.6c0-1.5-1.2-2.7-2.7-2.7h-41.1v-8.1
		c0-1.5-1.2-2.7-2.7-2.7h-32.9c-1.5,0-2.7,1.2-2.7,2.7v8.1h-41.1c-1.5,0-2.7,1.2-2.7,2.7V221c0,1.5,1.2,2.7,2.7,2.7h8.2v56.6h-8.2
		c-7.6,0-13.7,6-13.7,13.5v37.7c0,1.5,1.2,2.7,2.7,2.7h19.2v10.8c0,4.5,3.7,8.1,8.2,8.1h87.6c4.5,0,8.2-3.6,8.2-8.1v-10.8h18.8
		c1.5,0,2.7-1.2,2.7-2.7v-37.7C297.2,286.3,291.1,280.3,283.5,280.3z M283.5,285.6c4.5,0,8.2,3.6,8.2,8.1h-16.1v-8.1H283.5z
		 M281.1,202.1v16.2h-21.9v-16.2H281.1z M253.8,202.1v16.2h-5.5v-16.2H253.8z M210,191.3h27.4v5.4H210V191.3z M242.8,202.1v16.2
		h-38.3v-16.2H242.8z M199,202.1v16.2h-5.5v-16.2H199z M166.2,202.1h21.9v16.2h-21.9V202.1z M163.4,285.6h8.2v8.1h-16.4
		C155.2,289.3,158.9,285.7,163.4,285.6z M155.2,328.8v-29.6h16.4v29.6H155.2z M270.2,344.9c0,1.5-1.2,2.7-2.7,2.7h-87.6
		c-1.5,0-2.7-1.2-2.7-2.7V223.7h93.1V344.9z M291.8,328.8h-16.1v-29.6h16.1V328.8z"/>
	<path class="st1" d="M253.8,253.3h-60.2c-1.5,0-2.7,1.2-2.7,2.7v59.3c0,1.5,1.2,2.7,2.7,2.7h60.2c1.5,0,2.7-1.2,2.7-2.7V256
		C256.5,254.5,255.3,253.3,253.8,253.3z M251,258.7v8.1h-54.8v-8.1H251z M196.3,312.6v-40.4H251v40.4H196.3z"/>
</g>
<g id="Layer_2">
</g>
</svg>
