<?xml version="1.0" encoding="utf-8"?>
<!-- Generator: Adobe Illustrator 24.0.1, SVG Export Plug-In . SVG Version: 6.00 Build 0)  -->
<svg version="1.1" xmlns="http://www.w3.org/2000/svg" xmlns:xlink="http://www.w3.org/1999/xlink" x="0px" y="0px"
	 viewBox="0 0 512 512" style="enable-background:new 0 0 512 512;" xml:space="preserve">
<style type="text/css">
	.st0{fill:#2D2273;}
	.st1{fill:#FFFFFF;stroke:#FFFFFF;stroke-width:8;stroke-miterlimit:10;}
	.st2{fill:none;stroke:#FFFFFF;stroke-width:8;stroke-miterlimit:10;}
	.st3{fill:#F9F7F7;}
</style>
<g id="Layer_1">
	<g id="Layer_2_1_">
	</g>
	<g id="Layer_3">
	</g>
</g>
<g id="Layer_3_1_">
</g>
<g id="Layer_2">
	<g>
		<path class="st0" d="M479.3,246c0,18.6-2.4,36.7-6.9,54c0,0.1,0,0.2-0.1,0.3c-5.6,21.1-14.3,40.9-25.7,58.8
			c-37.5,59.3-103.7,98.7-179.1,98.7c-74.5,0-140.1-38.5-177.8-96.7c-21.5-33.1-34-72.7-34-115.1c0-117,94.8-211.8,211.8-211.8
			c54.3,0,103.8,20.4,141.3,54c29,26,50.8,59.8,62,98.2c3,10.1,5.2,20.5,6.6,31.2C478.7,226.9,479.3,236.4,479.3,246z"/>
		<path class="st1" d="M446.6,359.1c-37.5,59.3-103.7,98.7-179.1,98.7c-74.5,0-140.1-38.5-177.8-96.7
			c31.2-35.2,99.8-59.7,179.4-59.7C347.1,301.4,414.6,325,446.6,359.1z"/>
		<g>
			
				<ellipse transform="matrix(0.7986 -0.6018 0.6018 0.7986 -80.7269 206.0269)" class="st2" cx="267.5" cy="223.6" rx="14.6" ry="14.8"/>
			<polyline class="st2" points="235.3,234.8 235.1,278.2 301.3,277.8 301.3,228.1 			"/>
			<path class="st2" d="M268.1,171.4c-1.2,0.7-2.9,1.8-4.9,3.3c-1.8,1.3-7.9,6-16.8,16.7c-4.6,5.6-6.9,8.4-8.3,11.5
				c-3.1,6.8-3,13.5-3,15.9c0,8.7,0.1,24.3,0.1,16.1c0-1.4-4.7,0.3-4.7,0.3c-2.2,0.6-3.3,1.8-6,4.6c-6.3,6.5-5.9,5.4-7.1,7.2
				c-2.5,3.7-3.3,7.3-3.8,9.6c-0.3,1.5-0.2,1.6-0.7,10.4c-0.3,6.6-0.4,8.1,0.2,10.5c0.6,2.5,1.3,5.1,3.6,6.5
				c2.8,1.7,6.5,0.3,8.9-0.6c5.7-2.2,8.1-6,9.4-5.1c0.7,0.5,0.2,1.7,0,6.6c-0.2,5.1,0.3,4.7,0,8.7c-0.3,3.8-0.9,5,0,5.8
				c1,1,2.5,0.4,6.1,0.1c2.4-0.2,4.7,0.1,7.1,0.1c0,0,0,0,19.2,0.2c4.3,0,8.5,0.1,12.8,0.1c4.2,0,8.5,0.1,12.7,0.1
				c4.8,0.1,7.1,1.5,8.4,0.1c1.1-1.2,0.3-3.1-0.1-7.1c-0.4-3.9-0.2-7.2,0-9.3c-0.9-4.4-0.4-5.5,0.1-5.8c0.8-0.4,2,1.1,6.4,4.4
				c3.9,3,4.9,3.3,5.4,3.4c2.4,0.5,5.3,0,7.3-1.7c0.9-0.8,2.2-2.3,3-8.4c0.4-3.3,1-8.5-0.3-15.6c-0.8-4-1.4-7.6-3.9-11.5
				c-0.4-0.6-2.4-3.8-6.2-7c-4.4-3.6-6.8-3.6-9.2-7c-1.3-1.9-1.8-3.5-2.4-6.3c-1.6-6.5-0.3-8.4-1.1-15c-0.4-3.2-1.1-8.8-4.7-14.4
				c-0.4-0.7-2.2-2.7-5.9-6.7c-2.9-3.2-4.8-5.3-8.4-9.1c-1.6-1.7-4-4.3-6.9-7.5C272.3,174.1,270.2,172.7,268.1,171.4z"/>
		</g>
		<circle class="st3" cx="388.2" cy="114.6" r="30.6"/>
	</g>
</g>
</svg>
