<svg xmlns="http://www.w3.org/2000/svg" xmlns:xlink="http://www.w3.org/1999/xlink" x="0" y="0" version="1.1" viewBox="0 0 512 512" xml:space="preserve" style="enable-background:new 0 0 512 512"><style type="text/css">.st0{fill:#2d2273}.st1{fill:#fff}</style><g id="Layer_1"><circle cx="256.5" cy="255.9" r="211.8" class="st0"/></g><g id="Layer_2"><path d="M256.5,153.6c-58.5,0-106,45.8-106,102.3s47.5,102.3,106,102.3s106-45.8,106-102.3S315,153.6,256.5,153.6z M291.7,301.1c-1.7,1.6-3.4,3.3-4.8,4.7c-1.3,1.2-2.2,2.8-2.6,4.4c-0.6,2.3-1.2,4.7-2,7l-7.4,19.3c-5.9,1.2-12,1.9-18.2,1.9v-11.3 c0.7-5.2-3.3-15-9.7-21.1c-2.6-2.5-4-5.8-4-9.3v-13.2c0-4.8-2.7-9.2-7-11.5c-6.1-3.3-14.9-7.9-20.9-10.8c-4.9-2.4-9.4-5.4-13.5-9 l-0.3-0.3c-2.9-2.5-5.5-5.4-7.7-8.6c-4-5.7-10.5-15-14.8-21.1c8.7-18.8,24.5-33.8,44.1-42l10.3,5c4.5,2.2,9.9-1,9.9-5.9v-4.7 c3.4-0.5,6.9-0.9,10.4-1l12.1,11.7c2.7,2.6,2.7,6.8,0,9.3l-2,1.9l-4.4,4.3c-1.3,1.3-1.3,3.4,0,4.7l2,1.9c1.3,1.3,1.3,3.4,0,4.7 l-3.4,3.3c-0.6,0.6-1.5,1-2.4,1h-3.8c-0.9,0-1.7,0.3-2.4,0.9l-4.2,4c-1.1,1-1.3,2.6-0.7,3.8l6.7,12.9c1.1,2.2-0.5,4.8-3.1,4.8h-2.4 c-0.8,0-1.6-0.3-2.2-0.8l-4-3.3c-1.8-1.5-4.4-2-6.6-1.3l-13.3,4.3c-2.1,0.7-3.5,2.6-3.5,4.7c0,1.9,1.1,3.6,2.8,4.4l4.7,2.3 c4,1.9,8.5,3,13,3c4.5,0,9.7,11.3,13.7,13.2h28.5c3.6,0,7.1,1.4,9.7,3.9l5.9,5.6c2.4,2.4,3.8,5.6,3.8,8.9 C297.5,292.6,295.4,297.5,291.7,301.1z M328.7,263.4c-2.5-0.6-4.6-2.1-6-4.1l-7.7-11.1c-2.3-3.3-2.3-7.7,0-11l8.4-12.1 c1-1.4,2.4-2.6,3.9-3.4l5.5-2.7c5.8,11.1,9.1,23.6,9.1,36.8c0,3.6-0.3,7.1-0.8,10.5L328.7,263.4z" class="st1"/></g></svg>