<svg xmlns="http://www.w3.org/2000/svg" xmlns:xlink="http://www.w3.org/1999/xlink" id="Layer_1" x="0" y="0" version="1.1" viewBox="0 0 512 512" xml:space="preserve" style="enable-background:new 0 0 512 512"><style type="text/css">.st0{fill:#2d2273}.st1{fill:#fff}</style><circle cx="256.5" cy="255.9" r="211.8" class="st0"/><path d="M287.6,184c-0.6-0.1-1.1-0.1-1.7-0.1v0.2V184h-0.2c-10.2,0-19.9,10.6-22.1,24.7c-2.5,15,4.3,28.3,15.1,29.7	c0.6,0.1,1.2,0.1,1.9,0.1c10.2,0,19.9-10.6,22.1-24.7C305.2,198.7,298.4,185.4,287.6,184L287.6,184z M342.2,220.5	c-1.6-0.6-3.3-0.9-5-0.9H337c-9.1,0.1-19.3,7.9-24.7,19.6c-6.4,14-3.5,28.3,6.7,32c1.6,0.6,3.3,0.9,5,0.9c9.2,0,19.5-7.8,24.9-19.6	C355.3,238.6,352.3,224.2,342.2,220.5z M289.1,272.1c-12.9-17.9-18.4-24.6-33.1-24.6s-20.3,6.8-33.2,24.6	c-11,15.2-33.3,16.5-38.8,29.4c-1.1,2.3-1.7,4.8-1.7,7.5c0,10.5,9.6,19,21.5,19c14.7,0,34.8-9.8,52.2-9.8c17.5,0,37.4,9.8,52.2,9.8	c11.8,0,21.4-8.5,21.4-19c0-2.7-0.6-5.2-1.7-7.5C322.4,288.6,300.1,287.4,289.1,272.1L289.1,272.1z M231.4,238.4	c0.6,0,1.2,0,1.9-0.1c10.8-1.4,17.6-14.7,15.1-29.7c-2.3-14.1-12-24.7-22.1-24.7c-0.6,0-1.2,0-1.9,0.1	c-10.8,1.4-17.6,14.7-15.1,29.7C211.6,227.8,221.2,238.4,231.4,238.4L231.4,238.4z M193.1,271.3c10.1-3.7,13.1-18,6.7-32	c-5.4-11.8-15.8-19.6-24.9-19.6c-1.8,0-3.4,0.3-5,0.9c-10.1,3.7-13.1,18-6.7,32c5.4,11.8,15.8,19.6,24.9,19.6	C189.8,272.1,191.5,271.8,193.1,271.3z" class="st1"/></svg>