<svg xmlns="http://www.w3.org/2000/svg" xmlns:xlink="http://www.w3.org/1999/xlink" x="0" y="0" version="1.1" viewBox="0 0 512 512" xml:space="preserve" style="enable-background:new 0 0 512 512"><style type="text/css">.st0{fill:#2d2273}.st1,.st2{fill:none;stroke:#fff;stroke-width:7;stroke-miterlimit:10}.st2{stroke-width:6}.st3{fill:#fff}</style><g id="Layer_1"><circle cx="256.5" cy="255.9" r="211.8" class="st0"/></g><g id="Layer_2"><ellipse cx="252.6" cy="252.9" class="st1" rx="32.7" ry="76.2"/><ellipse cx="252.9" cy="252.6" class="st1" rx="31.8" ry="89.8" transform="matrix(0.57 -0.8217 0.8217 0.57 -98.8534 316.41)"/><ellipse cx="252.4" cy="252.3" class="st1" rx="89.8" ry="31.8" transform="matrix(0.8217 -0.57 0.57 0.8217 -98.7923 188.85)"/><ellipse cx="252.6" cy="252.8" class="st2" rx="19.7" ry="15.1"/><path d="M341.7,170.9l0.7-2.5c0.3-1,1.7-1.8,3.1-1.6l29,3.2c1.4,0.2,2.3,1.1,2,2.2l-6.3,21.7c-0.3,1-1.7,1.8-3.1,1.6 l-3.3-0.4c-1.4-0.2-2.3-1.2-2-2.2l4.3-13.1l-26.2,13.7c-1.2,0.6-2.8,0.5-3.6-0.4l-1.9-2c-0.8-0.9-0.4-2,0.8-2.7l26.2-13.7 l-17.7-1.6C342.3,173,341.4,172,341.7,170.9z" class="st3"/><path d="M364.9,310.1l3.3-0.2c1.4-0.1,2.7,0.7,2.9,1.8l4.6,21.9c0.2,1.1-0.7,2-2.2,2.1l-29.2,1.8 c-1.4,0.1-2.7-0.7-2.9-1.8l-0.5-2.5c-0.2-1.1,0.8-2,2.2-2.1l17.8-0.8l-25-14.9c-1.2-0.7-1.4-1.9-0.6-2.7l2-2 c0.8-0.8,2.5-0.9,3.6-0.2l25,14.9l-3.2-13.2C362.5,311.2,363.5,310.2,364.9,310.1z" class="st3"/><path d="M271.9,357.1l2.3,1.9c1,0.8,0.9,2.1,0,2.8l-20.2,16.1c-1,0.8-2.5,0.8-3.5,0l-19.7-16.4c-1-0.8-0.9-2.1,0-2.8 l2.3-1.8c1-0.8,2.6-0.8,3.5,0.1l11.6,10.2l0.4-24c0-1.1,1.1-2,2.5-2l3.3,0c1.4,0,2.5,0.9,2.4,2l-0.4,24l12-10 C269.3,356.3,270.9,356.3,271.9,357.1z" class="st3"/><path d="M135.7,200.4l-3.3,0.6c-1.4,0.2-2.8-0.4-3.2-1.4l-8.7-21.2c-0.4-1,0.4-2,1.7-2.3l28.6-5 c1.4-0.2,2.8,0.4,3.2,1.4l1,2.4c0.4,1-0.4,2.1-1.8,2.3l-17.4,2.7l27.5,12c1.3,0.6,1.8,1.7,1.1,2.6l-1.6,2.2 c-0.7,0.9-2.3,1.2-3.5,0.6l-27.5-12l5.7,12.8C137.9,199.1,137.1,200.2,135.7,200.4z" class="st3"/><path d="M233.1,149.4l-2.3-1.8c-1-0.8-1-2-0.1-2.8l19.4-16.7c0.9-0.8,2.5-0.8,3.5-0.1l20.5,15.8c1,0.8,1,2,0.1,2.8 l-2.2,1.9c-0.9,0.8-2.5,0.8-3.5,0l-12.1-9.8l0.8,24c0,1.1-1,2-2.4,2.1l-3.3,0.1c-1.4,0-2.5-0.8-2.5-2l-0.8-24l-11.4,10.3 C235.7,150.1,234.1,150.1,233.1,149.4z" class="st3"/><path d="M167.7,337.1l0.1,2.5c0,1.1-1.1,2-2.5,2.1l-29.2,2.3c-1.4,0.1-2.6-0.7-2.6-1.7l-0.9-22.2c0-1.1,1.1-2,2.5-2.1 l3.3-0.3c1.4-0.1,2.6,0.7,2.6,1.8l0.1,13.4l20.9-18.1c1-0.8,2.6-1,3.6-0.3l2.5,1.6c1,0.7,1.1,1.9,0.1,2.7l-20.9,18.1l17.7-1.7 C166.5,335.2,167.7,336,167.7,337.1z" class="st3"/></g></svg>