<?xml version="1.0" encoding="utf-8"?>
<!-- Generator: Adobe Illustrator 24.0.1, SVG Export Plug-In . SVG Version: 6.00 Build 0)  -->
<svg version="1.1" id="Layer_2_1_" xmlns="http://www.w3.org/2000/svg" xmlns:xlink="http://www.w3.org/1999/xlink" x="0px" y="0px"
	 viewBox="0 0 595.3 841.9" style="enable-background:new 0 0 595.3 841.9;" xml:space="preserve">
<style type="text/css">
	.st0{fill:#2D2273;}
	.st1{fill:#F4F6F9;}
</style>
<circle class="st0" cx="297.9" cy="461" r="211.8"/>
<g>
	<path class="st1" d="M306.5,449c15.6,8.2,35,2.2,43.2-13.4c8.2-15.6,2.2-35-13.4-43.2c-15.6-8.2-35-2.2-43.2,13.4
		S290.8,440.8,306.5,449L306.5,449z M330.3,403.7c9.4,4.9,13,16.6,8,25.9c-4.9,9.4-16.6,13-25.9,8c-9.4-4.9-13-16.6-8-25.9l0,0
		C309.3,402.4,320.9,398.8,330.3,403.7z"/>
	<path class="st1" d="M381.6,473.6l-10.8-23.2l10.4-19.8c9.7-18.3,10.8-32.3,4.4-53.5l-13.4-43.2c-1-3.4-4.6-5.3-8-4.2L321,343.1
		c-21.1,6.6-31.9,15.4-41.5,33.6l-10.6,20l-25.1,4.2c-14.1,2-26.4,11.3-33.9,25.4l-11.4,21.6c-2.6,4.7-2.5,10.5,0.4,15
		c1.2,1.8,2.8,3.2,4.6,4.2c2.4,1.2,5.1,1.8,7.9,1.5l20.9-2.3l-39.4,74.8c-0.8,1.5-1,3.3-0.4,4.9c3,9,9.5,16.4,17.9,20.7
		c1.4,0.7,2.8,1.3,4.2,1.8l-2.3,4.5c-7.1,13.4,5.9,24.8,13.7,28.9c7.8,4.1,24.5,8.4,31.6-5l2.3-4.5c1.3,0.9,2.6,1.7,3.9,2.5
		c8.3,4.5,18.1,5.7,27.2,3.1c1.6-0.5,3-1.6,3.8-3.2l39.4-74.8l10,18.6c1.3,2.3,3.2,4.3,5.5,5.5c1.9,1,4,1.5,6.1,1.5
		c5.4-0.2,10.2-3.4,12.6-8.2l11.4-21.6C387.2,501.7,387.9,486.2,381.6,473.6z M228,501.7l9-17l79.3,41.8l-9,17L228,501.7z
		 M290.8,382.6c8-15.2,16-21.6,34-27.3l37.1-11.5l11.5,37.1c5.4,17.9,4.6,28.5-3.4,43.8l-47.7,90.6L243,473.4L290.8,382.6
		L290.8,382.6z M209.5,455.8c-0.1-0.1-0.3-0.9,0.3-2l11.4-21.6c5.5-10.5,14.4-17.3,24.5-18.7l15.6-2.6l-22,41.7L209.5,455.8z
		 M205.5,544.4l16.5-31.4l17,9l-18.5,35.1C213.7,554.8,208.2,550.2,205.5,544.4z M231.9,590.6c-0.1-0.1-11.2-6.3-8.3-11.6l26.9-51
		l22.6,11.9l-26.9,51C243.3,596.2,232,590.6,231.9,590.6z M265.8,581l18.5-35.1l17,9l-16.5,31.4C278.5,587.2,271.6,585.3,265.8,581z
		 M357.1,531.4c-0.6,1.1-1.3,1.3-1.7,1l-14-26.1l21.9-41.6l6.8,14.5c4.5,9,3.9,20.2-1.7,30.7L357.1,531.4L357.1,531.4z"/>
</g>
</svg>
