<svg xmlns="http://www.w3.org/2000/svg" xmlns:xlink="http://www.w3.org/1999/xlink" id="Layer_2_1_" x="0" y="0" version="1.1" viewBox="0 0 434.3 437.9" xml:space="preserve" style="enable-background:new 0 0 434.3 437.9"><style type="text/css">.st0{fill:#2d2273}.st1{fill:#fff}</style><circle cx="217.9" cy="219" r="211.8" class="st0"/><path d="M215.8,237.8c-21.4,0-38.8,18.4-38.8,41c0,22.7,17.4,41,38.8,41s38.8-18.4,38.8-41	C254.6,256.1,237.2,237.8,215.8,237.8z M242.1,267.9c-0.3,0.9-0.8,1.3-1.6,2.1c-1,1-2.5,2.5-4.2,4.6c-3.3,3.3-6.5,6.6-9.8,9.9	c-7.3,6.3-10.8,10.2-12.6,12.7c-0.4,0.5-1.3,1.8-2.9,2.5c-2.5,1-5.2-0.2-6.9-1.1c-3.3-3.4-6.6-6.9-9.9-10.4	c-1.6-1.7-4.4-3.1-5.3-6.3c-0.2-0.6-0.7-2.8,0.3-5c0.9-2.1,2.6-3,3.4-3.5c0.9-0.5,3.3-1.8,5.4-0.8c0.6,0.3,1.3,1,2.5,2.4	c1,1.1,1.4,1.7,2.4,2.9c1.8,2.2,2.7,3.4,3.3,3.6c2.3,1,5.7-2.2,7.1-3.8c3.2-3.8,6.1-7.2,9-10.6c1.3-1.6,3-3.5,5.4-5.7	c2.9-2.6,3.4-3,3.8-3.2c0.5-0.3,1.6-0.8,3-0.7c1.7,0.1,2.9,0.9,3.3,1.1c1.7,1.1,2.3,2.7,3.2,4.6	C241.9,265.1,242.5,266.4,242.1,267.9z" class="st1"/><ellipse cx="215.5" cy="145" class="st1" rx="22.2" ry="32.8"/><path d="M280.1,152.8c0,18.1-9.9,32.8-22.2,32.8c-8.9,0-16.7-7.8-20.2-19.1c2.4-5.2,3.8-11.5,3.8-18.3	c0-4.9-0.7-9.5-2-13.7c4-8.7,10.7-14.5,18.4-14.5C270.2,120.1,280.1,134.8,280.1,152.8z" class="st1"/><g><path d="M214.7,187.1c-1.4,1.1-0.7,4.5-0.5,5.4c2.5,12.9-5.3,34.8,0.2,37.3c0.2,0.1,0.1,0,3.4,0.2 c3.1,0.2,5.3,0.3,7.1,0.6c3.2,0.5,5.4,1.4,7.8,2.4c0.7,0.3,5.7,2.5,10.2,6.2c0.6,0.5,1.9,1.6,3.9,3c1.4,1,2.6,1.7,3.4,2.2 c0.3,0.4,1.1,1.6,1.9,1.5s1.2-1.2,1.8-2.4c0.6-1.3,1.4-3.4,2.6-6.2c1.3-1.2,3.1-3.3,4.2-6.3c0.7-1.9,0.8-4.4,1.1-9.1 c0.1-2,0.2-4.8,0.2-8.9c0-3.4-0.1-6.2-0.2-8.2c0-1.4,0-2.9,0-4.3c0.2-0.6,0.5-2-0.2-3.4c-0.5-1.1-1.5-1.6-2.1-1.9 c-3-1.5-5.7-2.1-6.9-2.4c-1.5-0.4-4.2-1.1-7.1-2.8c-1.5-0.9-3.9-2.3-6-5c-2-2.6-1.9-4.1-3.4-4.5c-1.2-0.3-1.8,0.6-5.8,3 c-2.5,1.5-3.7,2.2-5.3,2.8c-1.5,0.5-3.4,1.2-6,1.1C216.5,187.1,215.6,186.4,214.7,187.1z" class="st1"/><path d="M215.7,187.1c1.4,1.1,0.7,4.5,0.5,5.4c-2.5,12.9,5.3,34.8-0.2,37.3c-0.2,0.1-0.1,0-3.4,0.2 c-3.1,0.2-5.3,0.3-7.1,0.6c-3.2,0.5-5.4,1.4-7.8,2.4c-0.7,0.3-5.7,2.5-10.2,6.2c-0.6,0.5-1.9,1.6-3.9,3c-1.4,1-2.6,1.7-3.4,2.2 c-0.3,0.4-1.1,1.6-1.9,1.5s-1.2-1.2-1.8-2.4c-0.6-1.3-1.4-3.4-2.6-6.2c-1.3-1.2-3.1-3.3-4.2-6.3c-0.7-1.9-0.8-4.4-1.1-9.1 c-0.1-2-0.2-4.8-0.2-8.9c0-3.4,0.1-6.2,0.2-8.2c0-1.4,0-2.9,0-4.3c-0.2-0.6-0.5-2,0.2-3.4c0.5-1.1,1.5-1.6,2.1-1.9 c3-1.5,5.7-2.1,6.9-2.4c1.5-0.4,4.2-1.1,7.1-2.8c1.5-0.9,3.9-2.3,6-5c2-2.6,1.9-4.1,3.4-4.5c1.2-0.3,1.8,0.6,5.8,3 c2.5,1.5,3.7,2.2,5.3,2.8c1.5,0.5,3.4,1.2,6,1.1C213.9,187.1,214.8,186.4,215.7,187.1z" class="st1"/></g><path d="M156.9,183.7c0.1,0,0,0,2.2,1.8c1.3,1,2.3,1.9,2.6,2.1c1.6,1.3,3.3,2.5,4.8,3.6c-0.7,0.8-1.8,2.1-2.5,3.9	c-0.9,2.3-0.9,4.2-0.9,8.2c0.1,6.6,0.2,8.2,0.2,8.2c0.1,2.9,0.3,7.2,0.5,12.5c-0.1,1.3-0.1,3.1,0.2,5.2c0.7,5.6,2.8,9.5,4.2,12.1	c2.7,4.9,5.9,8.4,8.6,10.8c-0.7,1.1-1.4,2.4-2.1,3.7c-1.8,3.5-2.9,6.9-3.5,9.7c-0.1,5-0.2,8.7-0.2,11.4c0,4.3,0,6.5,0,6.7	c0.1,1.6-0.1,3.2,0,4.8c0.1,1.2,0.1,1.7-0.2,2.1c-1.1,1.1-5.2-1.6-5.6-1.9c-4.2-2.8-4.5-5.1-10.2-11.2c-1.5-1.6-2.8-2.9-4.8-4.7	c-3.6-3.1-4.3-2.9-5.3-4.5c-2.3-3.6-0.8-8.7-0.2-11c0.7-2.4,1.8-4.3,4.1-8.2c0.5-0.9,1-1.6,1.6-2.2c1-1.1,1.4-1.1,1.8-1.7	c0.8-1.5,0-4.2-1.6-5.4c-1.2-0.9-2.2-0.5-4.8-0.7c-3.2-0.2-5.5-1.2-7.2-1.9c-3-1.2-5.7-2.3-7.1-4.8c-0.9-1.8-0.7-3.4-0.5-6.2	c0,0,0.5-7,0.5-15.1c0-8.2-1.3-10,0.4-12.9s4.8-4.1,7.2-4.7c3.7-0.8,6.4-2.2,8.1-3.4C151.9,187.1,154.6,182.7,156.9,183.7z" class="st1"/><path d="M273.4,183.7c-0.1,0,0,0-2.2,1.8c-1.3,1-2.3,1.9-2.6,2.1c-1.6,1.3-3.3,2.5-4.8,3.6c0.7,0.8,1.8,2.1,2.5,3.9	c0.9,2.3,0.9,4.2,0.9,8.2c-0.1,6.6-0.2,8.2-0.2,8.2c-0.1,2.9-0.3,7.2-0.5,12.5c0.1,1.3,0.1,3.1-0.2,5.2c-0.7,5.6-2.8,9.5-4.2,12.1	c-2.7,4.9-5.9,8.4-8.6,10.8c0.7,1.1,1.4,2.4,2.1,3.7c1.8,3.5,2.9,6.9,3.5,9.7c0.1,5,0.2,8.7,0.2,11.4c0,4.3,0,6.5,0,6.7	c-0.1,1.6,0.1,3.2,0,4.8c-0.1,1.2-0.1,1.7,0.2,2.1c1.1,1.1,5.2-1.6,5.6-1.9c4.2-2.8,4.5-5.1,10.2-11.2c1.5-1.6,2.8-2.9,4.8-4.7	c3.6-3.1,4.3-2.9,5.3-4.5c2.3-3.6,0.8-8.7,0.2-11c-0.7-2.4-1.8-4.3-4.1-8.2c-0.5-0.9-1-1.6-1.6-2.2c-1-1.1-1.4-1.1-1.8-1.7	c-0.8-1.5,0-4.2,1.6-5.4c1.2-0.9,2.2-0.5,4.8-0.7c3.2-0.2,5.5-1.2,7.2-1.9c3-1.2,5.7-2.3,7.1-4.8c0.9-1.8,0.7-3.4,0.5-6.2	c0,0-0.5-7-0.5-15.1c0-8.2,1.3-10-0.4-12.9c-1.7-2.9-4.8-4.1-7.2-4.7c-3.7-0.8-6.4-2.2-8.1-3.4C278.4,187.1,275.7,182.7,273.4,183.7	z" class="st1"/><path d="M150.9,152.8c0,18.1,9.9,32.8,22.2,32.8c8.9,0,16.7-7.8,20.2-19.1c-2.4-5.2-3.8-11.5-3.8-18.3	c0-4.9,0.7-9.5,2-13.7c-4-8.7-10.7-14.5-18.4-14.5C160.8,120.1,150.9,134.8,150.9,152.8z" class="st1"/></svg>