<?xml version="1.0" encoding="utf-8"?>
<!-- Generator: Adobe Illustrator 24.0.1, SVG Export Plug-In . SVG Version: 6.00 Build 0)  -->
<svg version="1.1" id="Layer_2_1_" xmlns="http://www.w3.org/2000/svg" xmlns:xlink="http://www.w3.org/1999/xlink" x="0px" y="0px"
	 viewBox="0 0 435.3 434.9" style="enable-background:new 0 0 435.3 434.9;" xml:space="preserve">
<style type="text/css">
	.st0{fill:#2D2273;}
	.st1{fill:#F4F6F9;}
</style>
<path class="st0" d="M429.7,217c0,61.3-26,116.5-67.6,155.1c-19.5,18.1-42.4,32.6-67.7,42.4c-4.7,1.8-9.5,3.5-14.3,5
	c-19.7,6-40.6,9.3-62.2,9.3c-29.1,0-56.9-5.9-82.2-16.5c-7.8-3.3-15.5-7.1-22.8-11.3c-29.3-16.8-54.3-40.3-72.6-68.6
	c-6.5-10-12.2-20.5-16.9-31.5l0,0C12.3,275.2,6.1,246.8,6.1,217c0-11.7,0.9-23.1,2.8-34.2c1.4-8.6,3.3-17,5.7-25.2
	c7.5-25.6,19.6-49.1,35.5-69.7C88.8,37.7,149.6,5.3,217.9,5.3C334.9,5.2,429.7,100,429.7,217z"/>
<g>
	<path class="st1" d="M306.8,99.5c-9.1-8.6-22.5-9.2-29.8-1.4c-7.3,7.8-5.9,21.1,3.2,29.6c9.1,8.6,22.5,9.2,29.8,1.4
		S315.9,108.1,306.8,99.5z M303.4,122.9c-4.4,4.7-12.4,4.3-17.9-0.8c-5.5-5.1-6.3-13.1-1.9-17.8c2.9-3.1,7.3-4,11.5-2.8
		c2.3,0.6,4.5,1.8,6.4,3.6C306.9,110.3,307.8,118.3,303.4,122.9z"/>
	<path class="st1" d="M326,159.7l-4.1-16.7l9.3-9.9c8.6-9.1,11.1-17.5,9.6-32l-3.2-29.6c-0.3-2.3-2.3-4.3-4.7-4.4l-29.8-1.4
		c-14.5-0.6-22.7,2.4-31.2,11.5l-9.4,10l-16.8-3c-9.4-1.9-18.6,1.1-25.3,8.1L210.2,103c-2.3,2.3-2.9,5.9-1.7,9.4
		c0.5,1.3,1.4,2.6,2.5,3.6c1.4,1.3,3.1,2.2,4.9,2.7l13.8,3.3l-35.1,37.3c-0.7,0.8-1,1.8-0.9,3c0.8,6.2,4.1,12.2,9,16.7
		c0.8,0.7,1.7,1.4,2.5,2.1l-2.1,2.2c-6.3,6.7,0.7,16.6,5.2,20.9c4.6,4.3,14.9,10.6,21.2,3.9l2.1-2.2c0.7,0.8,1.4,1.6,2.2,2.4
		c4.8,4.7,11,7.5,17.3,8c1.1,0.1,2.2-0.3,2.9-1.1l35.1-37.3l4.1,13.7c0.5,1.7,1.5,3.3,2.9,4.6c1.1,1,2.4,1.8,3.8,2.3
		c3.5,1.1,7.1,0.2,9.2-2.2l10.1-10.8C326,178.2,328.4,168.9,326,159.7z M216.4,110.3c-0.1-0.1-0.1-0.6,0.4-1.1l10.1-10.8
		c4.9-5.2,11.6-7.4,18.3-6.1l10.5,1.9L236.2,115L216.4,110.3z M202.5,164.1l14.7-15.7l9.9,9.3l-16.5,17.5
		C206.6,172.3,203.6,168.2,202.5,164.1z M223.1,201.8c-2.5,2.7-9.2-3.3-9.3-3.4c-0.1-0.1-6.5-6.4-3.9-9l23.9-25.4l13.2,12.4
		L223.1,201.8z M248.8,207.5c-4.2-0.8-8.4-3.5-11.7-7.4l16.5-17.5l9.9,9.3L248.8,207.5z M268.8,186.2l-46.2-43.5l8-8.5l46.2,43.4
		L268.8,186.2z M282.1,172.1l-46.2-43.4l42.6-45.3c7.2-7.6,13.1-9.8,25.5-9.3l25.6,1.2l2.8,25.4c1.3,12.2-0.6,18.6-7.8,26.2
		L282.1,172.1z M312.8,179.1l-10.1,10.8c-0.5,0.5-1,0.5-1.3,0.2l-5.8-19.2l19.5-20.8l2.6,10.5C319.5,167.1,317.7,173.9,312.8,179.1z
		"/>
</g>
<path class="st1" d="M160.5,239.5c0,1.8-0.1,3.6-0.2,5.3c-0.5,8.2-1.9,16.2-4.3,23.7c-12.3,38.8-48.6,66.9-91.5,66.9
	c-8.4,0-16.5-1.1-24.2-3.1c-6.5-10-12.2-20.5-16.9-31.5l0,0c-11.1-25.7-17.3-54.1-17.3-83.9c0-11.7,0.9-23.1,2.8-34.2
	c1.4-8.6,3.3-17,5.7-25.2c14.2-8.7,30.8-13.8,48.6-14l0,0c0.4,0,0.9,0,1.3,0c8.4,0,16.5,1.1,24.2,3.1c16.5,4.3,31.3,12.9,43.1,24.5
	c7.1,6.9,13,15,17.7,23.8C156.6,208.3,160.5,223.4,160.5,239.5z"/>
<path class="st1" d="M204.4,323.3c0,1.6,0,3.3-0.1,4.9c-2.1,40.5-30.6,74.1-68.5,84c-7.8-3.3-15.5-7.1-22.8-11.3
	c-29.3-16.8-54.3-40.3-72.6-68.6c-6.5-10-12.2-20.5-16.9-31.5l0,0c10-39.9,46.1-69.5,89.2-69.5l0,0c17.5,0,33.9,4.9,47.8,13.4
	c5.9,3.6,11.3,7.8,16.2,12.6c1.6,1.6,3.2,3.2,4.7,5c9.4,10.6,16.4,23.4,20.1,37.6C203.4,307.5,204.4,315.3,204.4,323.3z"/>
<path class="st1" d="M297.2,392.3c0,7.7-0.9,15.1-2.7,22.3c-4.7,1.8-9.5,3.5-14.3,5c-19.7,6-40.6,9.3-62.2,9.3
	c-29.1,0-56.9-5.9-82.2-16.5c-7.8-3.3-15.5-7.1-22.8-11.3c-0.3-2.9-0.4-5.8-0.4-8.7c0-39,24.2-72.4,58.4-85.9
	c9.5-3.7,19.7-6,30.5-6.3c1.1,0,2.3-0.1,3.4-0.1c11.9,0,23.4,2.3,33.9,6.4c9.2,3.6,17.7,8.7,25.2,14.9c16.8,14,28.5,33.7,32.1,56.2
	c0.5,3.3,0.9,6.7,1,10.1C297.1,389.2,297.2,390.7,297.2,392.3z"/>
<path class="st1" d="M89.3,138.5c0,2.7-0.2,5.4-0.6,8.1c-2.2,14.6-10.5,27.1-22.1,35.1c-8.4,5.8-18.6,9.2-29.6,9.2
	c-10.3,0-20-3-28.1-8.2c1.4-8.6,3.3-17,5.7-25.2c7.5-25.6,19.6-49.1,35.5-69.7c17.9,4.6,32.1,18.4,37.2,36.1
	C88.6,128.5,89.3,133.5,89.3,138.5z"/>
<path class="st1" d="M362.1,372.1c-19.5,18.1-42.4,32.6-67.7,42.4c-4.7,1.8-9.5,3.5-14.3,5c-0.1-1.4-0.2-2.8-0.2-4.3
	c0-8.5,2-16.4,5.6-23.5l0,0c2.7-5.3,6.2-10.1,10.5-14.2c5.2-5.1,11.6-9.1,18.6-11.6c5.5-2,11.5-3.1,17.8-3.1
	C343.4,362.8,353.7,366.3,362.1,372.1z"/>
<circle class="st1" cx="204.8" cy="291.2" r="37.1"/>
<circle class="st1" cx="93.2" cy="163.4" r="44.1"/>
<circle class="st1" cx="143.4" cy="225.8" r="43.3"/>
<circle class="st1" cx="277.6" cy="353.8" r="55.1"/>
</svg>
