<svg xmlns="http://www.w3.org/2000/svg" xmlns:xlink="http://www.w3.org/1999/xlink" viewBox="0 0 745.81 247.42">
  <defs>
    <linearGradient id="a" x1="521.43" y1="274.64" x2="720.2" y2="75.87" gradientUnits="userSpaceOnUse">
      <stop offset="0.07" stop-color="#a91c6a"/>
      <stop offset="0.27" stop-color="#00005d"/>
      <stop offset="0.45" stop-color="#0085b4"/>
      <stop offset="0.72" stop-color="#ff0"/>
      <stop offset="1" stop-color="#db0200"/>
    </linearGradient>
  </defs>
  <title>logo white</title>
  <g>
    <g>
      <path d="M78.33,182.05H38.1l.42,32.17H0v-66H82.49c12,0,18.89-5.79,18.89-14.4,0-8.79-6.92-14.21-18.89-14.21H0V87.05H78.94c38.71,0,61.34,19.08,61.34,46.94C140.28,161.67,117.22,182.05,78.33,182.05Z" fill="#fffff2"/>
      <path d="M242.06,182.05l-24.38,32.17H150.54V89.11h38.71v92.94Z" fill="#fffff2"/>
      <path d="M280.06,214.22l22-30.33h65l-36.08-52.71-37.52,52.71L272,214.22l-23.54,33.06H202.61l23.54-33.06,22.92-32.17,57.68-81c5.24-7.3,12.9-14,25.06-14,11.59,0,19.26,6.17,24.68,14l57.22,82.81,21,30.33Z" fill="#fffff2"/>
      <path d="M457.43,138.21v76H443.22l-21-30.33V87.05h37.1l77.54,80.11V87.05h14.2l21.15,30.11V214h-38.7Z" fill="#fffff2"/>
    </g>
    <polygon points="559.77 87.05 607.15 87.05 722.71 247.42 671.71 247.42 559.77 87.05" fill="#fffff2"/>
    <path d="M714.76,70.42c-22.36,48.46-42,71.05-79,112-13.61,15-30.52,29.67-50,39-43.25,20.72-91.65,25.86-91.65,25.86H600.43s36.68-25.35,71.24-80.59C695.65,128.35,702.68,122.3,714.76,70.42Z" fill="url(#a)"/>
    <g>
      <g>
        <path d="M726.11,59.34,713.24,55a1.41,1.41,0,0,1-1-1.54c.83-5.52,4.51-29,8-36.64C722.55,11.72,733,3.38,737.06.29a1.41,1.41,0,0,1,2.2.7c1.54,4.91,5.31,18,3.81,23.51-2.2,8-12.71,29.11-15.25,34.14A1.4,1.4,0,0,1,726.11,59.34Z" fill="#fffff2"/>
        <path d="M730.78,69.42l-.71-8.52s9.81-20,12.47-26.82c.68-1.75,4.36,2.11,2.94,9.36A56.69,56.69,0,0,1,741,55.64C738.88,59.81,730.78,69.42,730.78,69.42Z" fill="#fffff2"/>
        <path d="M703.63,61.61,709.08,55s3.87-21.94,5.57-29c.43-1.82-5.26-.87-8.24,5.88a56.77,56.77,0,0,0-3.27,12.6C702.48,49.09,703.63,61.61,703.63,61.61Z" fill="#fffff2"/>
        <polygon points="716.78 58.18 721.22 59.7 716.21 66.89 716.78 58.18" fill="#fffff2"/>
      </g>
      <path d="M736,3.93s-7.87,5.38-12.05,12.72c-7,12.33-7.18,29.91-7.18,29.91s6-20.32,8.6-26C727.61,15.55,736,3.93,736,3.93Z" fill="#000015"/>
    </g>
  </g>
</svg>
